<svg width="50" height="80" xmlns="http://www.w3.org/2000/svg">

 <g>
  <title>background</title>
  <rect fill="none" id="canvas_background" height="82" width="52" y="-1" x="-1"/>
 </g>
 <g>
  <title>Layer 1</title>
  <g id="svg_1">
   <path id="svg_2" d="m24.924597,25.21772c0.884346,1.530918 1.768692,3.116068 2.648867,4.73876c0.684116,1.263947 1.389091,2.527895 2.13578,3.86693c2.849098,5.110016 6.749397,12.088848 7.320889,16.422977c0.600681,4.47596 -0.463032,8.576488 -2.986759,11.550728c-2.265093,2.673893 -5.485449,4.229839 -9.118776,4.450932c-3.629156,-0.225258 -6.853683,-1.793724 -9.118777,-4.450932c-2.519552,-2.974239 -3.5791,-7.070599 -2.982582,-11.559074c0.571487,-4.321613 4.471787,-11.312958 7.320886,-16.418804c0.750858,-1.334862 1.455833,-2.59881 2.13995,-3.86693c0.867661,-1.626862 1.752008,-3.203669 2.640524,-4.734587m0,-23.748034l0,0c-4.254873,6.878711 -8.918547,14.028569 -13.54468,22.605058c-3.887786,7.208256 -9.777866,16.54812 -10.837413,24.528093c-2.231723,16.744171 9.431636,29.575539 24.386264,30.046913c14.946285,-0.471375 26.609646,-13.302742 24.382092,-30.046913c-1.063717,-7.975803 -6.949623,-17.319838 -10.83741,-24.528093c-4.634476,-8.576488 -9.298151,-15.718002 -13.548853,-22.605058l0,0z" fill="#fd634e"/>
  </g>
 </g>
</svg>